<svg xmlns="http://www.w3.org/2000/svg" xmlns:xlink="http://www.w3.org/1999/xlink" width="1360" height="711.3"><rect width="1360" height="711.3" rx="5" ry="5" class="a"/><svg y="0%" x="0%"><circle cx="20" cy="20" r="6" fill="#ff5f58"/><circle cx="40" cy="20" r="6" fill="#ffbd2e"/><circle cx="60" cy="20" r="6" fill="#18c132"/></svg><svg height="651.3" viewBox="0 0 132 65.13" width="1320" x="15" xmlns="http://www.w3.org/2000/svg" xmlns:xlink="http://www.w3.org/1999/xlink" y="50"><style>@keyframes A{0%{transform:translateX(0)}.5%{transform:translateX(-264px)}5.6%{transform:translateX(-396px)}6.6%{transform:translateX(-528px)}7.9%{transform:translateX(-1056px)}8%{transform:translateX(-1848px)}8.2%{transform:translateX(-1980px)}9.5%{transform:translateX(-2112px)}10.8%{transform:translateX(-2244px)}11.6%{transform:translateX(-2376px)}12.6%{transform:translateX(-2508px)}13.5%{transform:translateX(-2640px)}14.5%{transform:translateX(-2772px)}15.2%{transform:translateX(-2904px)}16.3%{transform:translateX(-3036px)}17.2%{transform:translateX(-3168px)}19.1%{transform:translateX(-3828px)}27%{transform:translateX(-4092px)}27.1%{transform:translateX(-4356px)}38.6%{transform:translateX(-4620px)}46.3%{transform:translateX(-4752px)}54.1%{transform:translateX(-4884px)}61.8%{transform:translateX(-5016px)}65.7%{transform:translateX(-5412px)}69.6%{transform:translateX(-5676px)}98.5%{transform:translateX(-5808px)}98.6%{transform:translateX(-6204px)}98.8%{transform:translateX(-6600px)}98.9%{transform:translateX(-6732px)}to{transform:translateX(-6864px)}}.a{fill:#282d35}.f{white-space:pre}.f,.g{fill:#b9bfca}.h{fill:#080808;white-space:pre}.i{fill:#71bef2}.j{fill:#e4e4e4}.j,.k,.l{white-space:pre}.k{fill:#eee;font-weight:700}.l{fill:#71bef2}.m{fill:#6c6c6c}.m,.n,.o,.p,.q,.r,.s{white-space:pre}.o,.p,.q,.r,.s{fill:#5fd700}.p,.q,.r,.s{fill:#b9c0cb}.q,.r,.s{fill:#a8cc8c}.r,.s{fill:#6f7783}.s{fill:#b9c0cb;text-decoration:underline}.w{fill:#dbab79}.C{fill:#e88388;font-weight:700;white-space:pre}</style><g font-family="Monaco,Consolas,Menlo,'Bitstream Vera Sans Mono','Powerline Symbols',monospace" font-size="1.67"><defs><symbol id="1"><text y="1.67" class="f"></text><path class="g" d="M1.002 0h3v2.171h-3z"/><text x="1.002" y="1.67" class="h"></text><path class="i" d="M4.008 0h1v2.171h-1z"/><text x="4.008" y="1.67" class="f"></text><path class="i" d="M5.01 0h3v2.171h-3z"/><text x="5.01" y="1.67" class="j"></text><path class="i" d="M8.016 0h1v2.171h-1z"/><text x="8.016" y="1.67" class="k">~</text><path class="i" d="M9.018 0h19v2.171h-19z"/><text x="9.018" y="1.67" class="j">/Programming/Study/</text><path class="i" d="M28.056 0h7v2.171h-7z"/><text x="28.056" y="1.67" class="k">Scratch</text><path class="i" d="M35.07 0h1v2.171h-1z"/><text x="35.07" y="1.67" class="j"></text><text x="36.072" y="1.67" class="l"></text><text x="37.074" y="1.67" class="m">········································································</text><text x="109.218" y="1.67" class="f"></text><path class="g" d="M110.22 0h18v2.171h-18z"/><text x="110.22" y="1.67" class="n">at 09:28:10 PM </text><text x="128.256" y="1.67" class="f"></text><text x="129.258" y="1.67" class="m">─╮</text></symbol><symbol id="2"><text y="1.67" class="o">❯</text><text x="129.258" y="1.67" class="m">─╯</text></symbol><symbol id="3"><text y="1.67" class="o">❯</text><text x="2.004" y="1.67" class="p">t</text><text x="129.258" y="1.67" class="m">─╯</text></symbol><symbol id="4"><text y="1.67" class="o">❯</text><text x="2.004" y="1.67" class="p">ts</text><text x="129.258" y="1.67" class="m">─╯</text></symbol><symbol id="5"><text y="1.67" class="o">❯</text><text x="2.004" y="1.67" class="q">ts-node</text><text x="10.02" y="1.67" class="r">src/app.ts</text><text x="129.258" y="1.67" class="m">─╯</text></symbol><symbol id="6"><text y="1.67" class="o">❯</text><text x="2.004" y="1.67" class="q">ts-node</text><text x="10.02" y="1.67" class="s">src/app.ts</text><text x="129.258" y="1.67" class="m">─╯</text></symbol><symbol id="7"><text y="1.67" class="o">❯</text><text x="2.004" y="1.67" class="q">ts-node</text><text x="10.02" y="1.67" class="s">src/app.ts</text></symbol><symbol id="8"><text y="1.67" class="p">[Client</text><text x="8.016" y="1.67" class="p">A]</text><text x="11.022" y="1.67" class="p">Try</text><text x="15.03" y="1.67" class="p">to</text><text x="18.036" y="1.67" class="p">acquire</text><text x="26.052" y="1.67" class="p">lock</text></symbol><symbol id="9"><text y="1.67" class="p">call</text><text x="5.01" y="1.67" class="p">redis</text><text x="11.022" y="1.67" class="p">for</text><text x="15.03" y="1.67" class="p">acquire</text><text x="23.046" y="1.67" class="p">lock</text></symbol><symbol id="10"><text y="1.67" class="p">[Client</text><text x="8.016" y="1.67" class="p">A]</text><text x="11.022" y="1.67" class="p">success</text><text x="19.038" y="1.67" class="p">lock[307de729-4175-4d69-a4bb-087e75881892]</text></symbol><symbol id="11"><text y="1.67" class="p">[Client</text><text x="8.016" y="1.67" class="p">A]</text><text x="11.022" y="1.67" class="p">Do</text><text x="14.028" y="1.67" class="p">something</text></symbol><symbol id="12"><text y="1.67" class="p">[Client</text><text x="8.016" y="1.67" class="p">B]</text><text x="11.022" y="1.67" class="p">Try</text><text x="15.03" y="1.67" class="p">to</text><text x="18.036" y="1.67" class="p">acquire</text><text x="26.052" y="1.67" class="p">lock</text></symbol><symbol id="13"><text y="1.67" class="p">[Client</text><text x="8.016" y="1.67" class="p">A]</text><text x="11.022" y="1.67" class="p">Try</text><text x="15.03" y="1.67" class="p">to</text><text x="18.036" y="1.67" class="p">Release</text><text x="26.052" y="1.67" class="p">lock[307de729-4175-4d69-a4bb-087e75881892]</text></symbol><symbol id="14"><text y="1.67" class="p">call</text><text x="5.01" y="1.67" class="p">redis</text><text x="11.022" y="1.67" class="p">for</text><text x="15.03" y="1.67" class="p">release</text><text x="23.046" y="1.67" class="p">lock</text></symbol><symbol id="15"><text y="1.67" class="p">[Client</text><text x="8.016" y="1.67" class="p">A]</text><text x="11.022" y="1.67" class="p">Release</text><text x="19.038" y="1.67" class="p">lock[307de729-4175-4d69-a4bb-087e75881892]</text><text x="62.124" y="1.67" class="p">result</text><text x="69.138" y="1.67" class="p">:</text><text x="71.142" y="1.67" class="p">true</text></symbol><symbol id="16"><text y="1.67" class="p">[Client</text><text x="8.016" y="1.67" class="p">B]</text><text x="11.022" y="1.67" class="p">success</text><text x="19.038" y="1.67" class="p">lock[4ddf397e-ae99-4283-afa4-a08bedb0f491]</text></symbol><symbol id="17"><text y="1.67" class="p">[Client</text><text x="8.016" y="1.67" class="p">B]</text><text x="11.022" y="1.67" class="p">Do</text><text x="14.028" y="1.67" class="p">something</text></symbol><symbol id="18"><text y="1.67" class="p">^C</text></symbol><symbol id="19"><text y="1.67" class="f"></text><path class="g" d="M1.002 0h3v2.171h-3z"/><text x="1.002" y="1.67" class="h"></text><path class="i" d="M4.008 0h1v2.171h-1z"/><text x="4.008" y="1.67" class="f"></text><path class="i" d="M5.01 0h3v2.171h-3z"/><text x="5.01" y="1.67" class="j"></text><path class="i" d="M8.016 0h1v2.171h-1z"/><text x="8.016" y="1.67" class="k">~</text><path class="i" d="M9.018 0h19v2.171h-19z"/><text x="9.018" y="1.67" class="j">/Programming/Study/</text><path class="i" d="M28.056 0h7v2.171h-7z"/><text x="28.056" y="1.67" class="k">Scratch</text><path class="i" d="M35.07 0h1v2.171h-1z"/><text x="35.07" y="1.67" class="j"></text><text x="36.072" y="1.67" class="l"></text><text x="37.074" y="1.67" class="m">···················································</text><text x="88.176" y="1.67" style="white-space:pre" fill="#e88388"></text><path fill="#e88388" d="M89.178 0h8v2.171h-8z"/><text x="89.178" y="1.67" style="white-space:pre" fill="#dbab79">INT ✘ </text><path class="w" d="M97.194 0h12v2.171h-12z"/><text x="97.194" y="1.67" class="n">took 10s </text><path class="w" d="M109.218 0h1v2.171h-1z"/><text x="109.218" y="1.67" class="f"></text><path class="g" d="M110.22 0h18v2.171h-18z"/><text x="110.22" y="1.67" class="n">at 09:28:23 PM </text><text x="128.256" y="1.67" class="f"></text><text x="129.258" y="1.67" class="m">─╮</text></symbol><symbol id="20"><text y="1.67" style="white-space:pre" fill="red">❯</text><text x="129.258" y="1.67" class="m">─╯</text></symbol><symbol id="a"><path fill="transparent" d="M0 0h132v30H0z"/></symbol><symbol id="b"><path fill="#6f7683" d="M0 0h1.102v2.171H0z"/></symbol></defs><path class="a" d="M0 0h132v65.13H0z"/><g style="animation-duration:12.975222s;animation-iteration-count:infinite;animation-name:A;animation-timing-function:steps(1,end)"><svg width="6996"><svg><use xlink:href="#a"/><use xlink:href="#b" x="-.004"/></svg><svg x="132"><use xlink:href="#a"/><use xlink:href="#b" x="-.004" y="2.146"/><use xlink:href="#1"/></svg><svg x="264"><use xlink:href="#a"/><use xlink:href="#b" x="1.996" y="2.146"/><use xlink:href="#1"/><use xlink:href="#2" y="2.171"/></svg><svg x="396"><use xlink:href="#a"/><use xlink:href="#b" x="2.996" y="2.146"/><use xlink:href="#1"/><use xlink:href="#3" y="2.171"/></svg><svg x="528"><use xlink:href="#a"/><use xlink:href="#b" x="3.996" y="2.146"/><use xlink:href="#1"/><use xlink:href="#4" y="2.171"/></svg><svg x="660"><use xlink:href="#a"/><use xlink:href="#1"/><use xlink:href="#4" y="2.171"/></svg><svg x="792"><use xlink:href="#a"/></svg><svg x="924"><use xlink:href="#a"/></svg><svg x="1056"><use xlink:href="#a"/></svg><svg x="1188"><use xlink:href="#a"/><use xlink:href="#1"/><use xlink:href="#2" y="2.171"/></svg><svg x="1320"><use xlink:href="#a"/><use xlink:href="#1"/><use xlink:href="#2" y="2.171"/></svg><svg x="1452"><use xlink:href="#a"/><use xlink:href="#b" x="1.996" y="2.146"/><use xlink:href="#1"/><use xlink:href="#2" y="2.171"/></svg><svg x="1584"><use xlink:href="#a"/><use xlink:href="#b" x="1.996" y="2.146"/><use xlink:href="#1"/><use xlink:href="#2" y="2.171"/></svg><svg x="1716"><use xlink:href="#a"/><use xlink:href="#b" x="2.996" y="2.146"/><use xlink:href="#1"/><use xlink:href="#3" y="2.171"/></svg><svg x="1848"><use xlink:href="#a"/><use xlink:href="#b" x="3.996" y="2.146"/><use xlink:href="#1"/><text y="3.841" class="o">❯</text><text x="2.004" y="3.841" class="q">ts</text><text x="4.008" y="3.841" class="r">-node</text><text x="10.02" y="3.841" class="r">src/app.ts</text><text x="129.258" y="3.841" class="m">─╯</text></svg><svg x="1980"><use xlink:href="#a"/><use xlink:href="#b" x="4.996" y="2.146"/><use xlink:href="#1"/><text y="3.841" class="o">❯</text><text x="2.004" y="3.841" class="C">ts-</text><text x="5.01" y="3.841" class="r">node</text><text x="10.02" y="3.841" class="r">src/app.ts</text><text x="129.258" y="3.841" class="m">─╯</text></svg><svg x="2112"><use xlink:href="#a"/><use xlink:href="#b" x="5.996" y="2.146"/><use xlink:href="#1"/><text y="3.841" class="o">❯</text><text x="2.004" y="3.841" class="C">ts-n</text><text x="6.012" y="3.841" class="r">ode</text><text x="10.02" y="3.841" class="r">src/app.ts</text><text x="129.258" y="3.841" class="m">─╯</text></svg><svg x="2244"><use xlink:href="#a"/><use xlink:href="#b" x="6.996" y="2.146"/><use xlink:href="#1"/><text y="3.841" class="o">❯</text><text x="2.004" y="3.841" class="C">ts-no</text><text x="7.014" y="3.841" class="r">de</text><text x="10.02" y="3.841" class="r">src/app.ts</text><text x="129.258" y="3.841" class="m">─╯</text></svg><svg x="2376"><use xlink:href="#a"/><use xlink:href="#b" x="7.996" y="2.146"/><use xlink:href="#1"/><text y="3.841" class="o">❯</text><text x="2.004" y="3.841" class="C">ts-nod</text><text x="8.016" y="3.841" class="r">e</text><text x="10.02" y="3.841" class="r">src/app.ts</text><text x="129.258" y="3.841" class="m">─╯</text></svg><svg x="2508"><use xlink:href="#a"/><use xlink:href="#b" x="8.996" y="2.146"/><use xlink:href="#1"/><use xlink:href="#5" y="2.171"/></svg><svg x="2640"><use xlink:href="#a"/><use xlink:href="#b" x="9.996" y="2.146"/><use xlink:href="#1"/><use xlink:href="#5" y="2.171"/></svg><svg x="2772"><use xlink:href="#a"/><use xlink:href="#b" x="10.996" y="2.146"/><use xlink:href="#1"/><text y="3.841" class="o">❯</text><text x="2.004" y="3.841" class="q">ts-node</text><text x="10.02" y="3.841" class="s">s</text><text x="11.022" y="3.841" class="r">rc/app.ts</text><text x="129.258" y="3.841" class="m">─╯</text></svg><svg x="2904"><use xlink:href="#a"/><use xlink:href="#b" x="11.996" y="2.146"/><use xlink:href="#1"/><text y="3.841" class="o">❯</text><text x="2.004" y="3.841" class="q">ts-node</text><text x="10.02" y="3.841" class="s">sr</text><text x="12.024" y="3.841" class="r">c/app.ts</text><text x="129.258" y="3.841" class="m">─╯</text></svg><svg x="3036"><use xlink:href="#a"/><use xlink:href="#b" x="12.996" y="2.146"/><use xlink:href="#1"/><text y="3.841" class="o">❯</text><text x="2.004" y="3.841" class="q">ts-node</text><text x="10.02" y="3.841" class="s">src</text><text x="13.026" y="3.841" class="r">/app.ts</text><text x="129.258" y="3.841" class="m">─╯</text></svg><svg x="3168"><use xlink:href="#a"/><use xlink:href="#b" x="19.996" y="2.146"/><use xlink:href="#1"/><use xlink:href="#6" y="2.171"/></svg><svg x="3300"><use xlink:href="#a"/><use xlink:href="#b" x="19.996" y="2.146"/><use xlink:href="#1"/><use xlink:href="#6" y="2.171"/></svg><svg x="3432"><use xlink:href="#a"/><use xlink:href="#1"/><use xlink:href="#6" y="2.171"/></svg><svg x="3564"><use xlink:href="#a"/><use xlink:href="#b" x="19.996"/><use xlink:href="#7"/></svg><svg x="3696"><use xlink:href="#a"/><use xlink:href="#b" x="-.004" y="2.146"/><use xlink:href="#7"/></svg><svg x="3828"><use xlink:href="#a"/><use xlink:href="#b" x="-.004" y="2.146"/><use xlink:href="#7"/></svg><svg x="3960"><use xlink:href="#a"/><use xlink:href="#b" x="-.004" y="4.317"/><use xlink:href="#7"/><use xlink:href="#8" y="2.171"/></svg><svg x="4092"><use xlink:href="#a"/><use xlink:href="#b" x="-.004" y="6.488"/><use xlink:href="#7"/><use xlink:href="#8" y="2.171"/><use xlink:href="#9" y="4.342"/></svg><svg x="4224"><use xlink:href="#a"/><use xlink:href="#b" x="-.004" y="8.659"/><use xlink:href="#7"/><use xlink:href="#8" y="2.171"/><use xlink:href="#9" y="4.342"/><use xlink:href="#10" y="6.513"/></svg><svg x="4356"><use xlink:href="#a"/><use xlink:href="#b" x="-.004" y="10.83"/><use xlink:href="#7"/><use xlink:href="#8" y="2.171"/><use xlink:href="#9" y="4.342"/><use xlink:href="#10" y="6.513"/><use xlink:href="#11" y="8.684"/></svg><svg x="4488"><use xlink:href="#a"/><use xlink:href="#b" x="-.004" y="13.001"/><use xlink:href="#7"/><use xlink:href="#8" y="2.171"/><use xlink:href="#9" y="4.342"/><use xlink:href="#10" y="6.513"/><use xlink:href="#11" y="8.684"/><use xlink:href="#12" y="10.855"/></svg><svg x="4620"><use xlink:href="#a"/><use xlink:href="#b" x="-.004" y="15.172"/><use xlink:href="#7"/><use xlink:href="#8" y="2.171"/><use xlink:href="#9" y="4.342"/><use xlink:href="#10" y="6.513"/><use xlink:href="#11" y="8.684"/><use xlink:href="#12" y="10.855"/><use xlink:href="#9" y="13.026"/></svg><svg x="4752"><use xlink:href="#a"/><use xlink:href="#b" x="-.004" y="17.343"/><use xlink:href="#7"/><use xlink:href="#8" y="2.171"/><use xlink:href="#9" y="4.342"/><use xlink:href="#10" y="6.513"/><use xlink:href="#11" y="8.684"/><use xlink:href="#12" y="10.855"/><use xlink:href="#9" y="13.026"/><use xlink:href="#9" y="15.197"/></svg><svg x="4884"><use xlink:href="#a"/><use xlink:href="#b" x="-.004" y="19.514"/><use xlink:href="#7"/><use xlink:href="#8" y="2.171"/><use xlink:href="#9" y="4.342"/><use xlink:href="#10" y="6.513"/><use xlink:href="#11" y="8.684"/><use xlink:href="#12" y="10.855"/><use xlink:href="#9" y="13.026"/><use xlink:href="#9" y="15.197"/><use xlink:href="#9" y="17.368"/></svg><svg x="5016"><use xlink:href="#a"/><use xlink:href="#b" x="-.004" y="21.685"/><use xlink:href="#7"/><use xlink:href="#8" y="2.171"/><use xlink:href="#9" y="4.342"/><use xlink:href="#10" y="6.513"/><use xlink:href="#11" y="8.684"/><use xlink:href="#12" y="10.855"/><use xlink:href="#9" y="13.026"/><use xlink:href="#9" y="15.197"/><use xlink:href="#9" y="17.368"/><use xlink:href="#9" y="19.539"/></svg><svg x="5148"><use xlink:href="#a"/><use xlink:href="#b" x="-.004" y="23.856"/><use xlink:href="#7"/><use xlink:href="#8" y="2.171"/><use xlink:href="#9" y="4.342"/><use xlink:href="#10" y="6.513"/><use xlink:href="#11" y="8.684"/><use xlink:href="#12" y="10.855"/><use xlink:href="#9" y="13.026"/><use xlink:href="#9" y="15.197"/><use xlink:href="#9" y="17.368"/><use xlink:href="#9" y="19.539"/><use xlink:href="#13" y="21.71"/></svg><svg x="5280"><use xlink:href="#a"/><use xlink:href="#b" x="-.004" y="26.027"/><use xlink:href="#7"/><use xlink:href="#8" y="2.171"/><use xlink:href="#9" y="4.342"/><use xlink:href="#10" y="6.513"/><use xlink:href="#11" y="8.684"/><use xlink:href="#12" y="10.855"/><use xlink:href="#9" y="13.026"/><use xlink:href="#9" y="15.197"/><use xlink:href="#9" y="17.368"/><use xlink:href="#9" y="19.539"/><use xlink:href="#13" y="21.71"/><use xlink:href="#14" y="23.881"/></svg><svg x="5412"><use xlink:href="#a"/><use xlink:href="#b" x="-.004" y="28.198"/><use xlink:href="#7"/><use xlink:href="#8" y="2.171"/><use xlink:href="#9" y="4.342"/><use xlink:href="#10" y="6.513"/><use xlink:href="#11" y="8.684"/><use xlink:href="#12" y="10.855"/><use xlink:href="#9" y="13.026"/><use xlink:href="#9" y="15.197"/><use xlink:href="#9" y="17.368"/><use xlink:href="#9" y="19.539"/><use xlink:href="#13" y="21.71"/><use xlink:href="#14" y="23.881"/><use xlink:href="#15" y="26.052"/></svg><svg x="5544"><use xlink:href="#a"/><use xlink:href="#b" x="-.004" y="30.369"/><use xlink:href="#7"/><use xlink:href="#8" y="2.171"/><use xlink:href="#9" y="4.342"/><use xlink:href="#10" y="6.513"/><use xlink:href="#11" y="8.684"/><use xlink:href="#12" y="10.855"/><use xlink:href="#9" y="13.026"/><use xlink:href="#9" y="15.197"/><use xlink:href="#9" y="17.368"/><use xlink:href="#9" y="19.539"/><use xlink:href="#13" y="21.71"/><use xlink:href="#14" y="23.881"/><use xlink:href="#15" y="26.052"/><use xlink:href="#9" y="28.223"/></svg><svg x="5676"><use xlink:href="#a"/><use xlink:href="#b" x="-.004" y="34.711"/><use xlink:href="#7"/><use xlink:href="#8" y="2.171"/><use xlink:href="#9" y="4.342"/><use xlink:href="#10" y="6.513"/><use xlink:href="#11" y="8.684"/><use xlink:href="#12" y="10.855"/><use xlink:href="#9" y="13.026"/><use xlink:href="#9" y="15.197"/><use xlink:href="#9" y="17.368"/><use xlink:href="#9" y="19.539"/><use xlink:href="#13" y="21.71"/><use xlink:href="#14" y="23.881"/><use xlink:href="#15" y="26.052"/><use xlink:href="#9" y="28.223"/><use xlink:href="#16" y="30.394"/><use xlink:href="#17" y="32.565"/></svg><svg x="5808"><use xlink:href="#a"/><use xlink:href="#b" x="1.996" y="34.711"/><use xlink:href="#7"/><use xlink:href="#8" y="2.171"/><use xlink:href="#9" y="4.342"/><use xlink:href="#10" y="6.513"/><use xlink:href="#11" y="8.684"/><use xlink:href="#12" y="10.855"/><use xlink:href="#9" y="13.026"/><use xlink:href="#9" y="15.197"/><use xlink:href="#9" y="17.368"/><use xlink:href="#9" y="19.539"/><use xlink:href="#13" y="21.71"/><use xlink:href="#14" y="23.881"/><use xlink:href="#15" y="26.052"/><use xlink:href="#9" y="28.223"/><use xlink:href="#16" y="30.394"/><use xlink:href="#17" y="32.565"/><use xlink:href="#18" y="34.736"/></svg><svg x="5940"><use xlink:href="#a"/><use xlink:href="#b" x="-.004" y="36.882"/><use xlink:href="#7"/><use xlink:href="#8" y="2.171"/><use xlink:href="#9" y="4.342"/><use xlink:href="#10" y="6.513"/><use xlink:href="#11" y="8.684"/><use xlink:href="#12" y="10.855"/><use xlink:href="#9" y="13.026"/><use xlink:href="#9" y="15.197"/><use xlink:href="#9" y="17.368"/><use xlink:href="#9" y="19.539"/><use xlink:href="#13" y="21.71"/><use xlink:href="#14" y="23.881"/><use xlink:href="#15" y="26.052"/><use xlink:href="#9" y="28.223"/><use xlink:href="#16" y="30.394"/><use xlink:href="#17" y="32.565"/><use xlink:href="#18" y="34.736"/></svg><svg x="6072"><use xlink:href="#a"/><use xlink:href="#b" x="-.004" y="36.882"/><use xlink:href="#7"/><use xlink:href="#8" y="2.171"/><use xlink:href="#9" y="4.342"/><use xlink:href="#10" y="6.513"/><use xlink:href="#11" y="8.684"/><use xlink:href="#12" y="10.855"/><use xlink:href="#9" y="13.026"/><use xlink:href="#9" y="15.197"/><use xlink:href="#9" y="17.368"/><use xlink:href="#9" y="19.539"/><use xlink:href="#13" y="21.71"/><use xlink:href="#14" y="23.881"/><use xlink:href="#15" y="26.052"/><use xlink:href="#9" y="28.223"/><use xlink:href="#16" y="30.394"/><use xlink:href="#17" y="32.565"/><use xlink:href="#18" y="34.736"/></svg><svg x="6204"><use xlink:href="#a"/><use xlink:href="#b" x="-.004" y="36.882"/><use xlink:href="#7"/><use xlink:href="#8" y="2.171"/><use xlink:href="#9" y="4.342"/><use xlink:href="#10" y="6.513"/><use xlink:href="#11" y="8.684"/><use xlink:href="#12" y="10.855"/><use xlink:href="#9" y="13.026"/><use xlink:href="#9" y="15.197"/><use xlink:href="#9" y="17.368"/><use xlink:href="#9" y="19.539"/><use xlink:href="#13" y="21.71"/><use xlink:href="#14" y="23.881"/><use xlink:href="#15" y="26.052"/><use xlink:href="#9" y="28.223"/><use xlink:href="#16" y="30.394"/><use xlink:href="#17" y="32.565"/><use xlink:href="#18" y="34.736"/></svg><svg x="6336"><use xlink:href="#a"/><use xlink:href="#b" x="-.004" y="41.224"/><use xlink:href="#7"/><use xlink:href="#8" y="2.171"/><use xlink:href="#9" y="4.342"/><use xlink:href="#10" y="6.513"/><use xlink:href="#11" y="8.684"/><use xlink:href="#12" y="10.855"/><use xlink:href="#9" y="13.026"/><use xlink:href="#9" y="15.197"/><use xlink:href="#9" y="17.368"/><use xlink:href="#9" y="19.539"/><use xlink:href="#13" y="21.71"/><use xlink:href="#14" y="23.881"/><use xlink:href="#15" y="26.052"/><use xlink:href="#9" y="28.223"/><use xlink:href="#16" y="30.394"/><use xlink:href="#17" y="32.565"/><use xlink:href="#18" y="34.736"/><use xlink:href="#19" y="39.078"/></svg><svg x="6468"><use xlink:href="#a"/><use xlink:href="#b" x="1.996" y="41.224"/><use xlink:href="#7"/><use xlink:href="#8" y="2.171"/><use xlink:href="#9" y="4.342"/><use xlink:href="#10" y="6.513"/><use xlink:href="#11" y="8.684"/><use xlink:href="#12" y="10.855"/><use xlink:href="#9" y="13.026"/><use xlink:href="#9" y="15.197"/><use xlink:href="#9" y="17.368"/><use xlink:href="#9" y="19.539"/><use xlink:href="#13" y="21.71"/><use xlink:href="#14" y="23.881"/><use xlink:href="#15" y="26.052"/><use xlink:href="#9" y="28.223"/><use xlink:href="#16" y="30.394"/><use xlink:href="#17" y="32.565"/><use xlink:href="#18" y="34.736"/><use xlink:href="#19" y="39.078"/><use xlink:href="#20" y="41.249"/></svg><svg x="6600"><use xlink:href="#a"/><use xlink:href="#b" x="1.996" y="41.224"/><use xlink:href="#7"/><use xlink:href="#8" y="2.171"/><use xlink:href="#9" y="4.342"/><use xlink:href="#10" y="6.513"/><use xlink:href="#11" y="8.684"/><use xlink:href="#12" y="10.855"/><use xlink:href="#9" y="13.026"/><use xlink:href="#9" y="15.197"/><use xlink:href="#9" y="17.368"/><use xlink:href="#9" y="19.539"/><use xlink:href="#13" y="21.71"/><use xlink:href="#14" y="23.881"/><use xlink:href="#15" y="26.052"/><use xlink:href="#9" y="28.223"/><use xlink:href="#16" y="30.394"/><use xlink:href="#17" y="32.565"/><use xlink:href="#18" y="34.736"/><use xlink:href="#19" y="39.078"/><use xlink:href="#20" y="41.249"/></svg><svg x="6732"><use xlink:href="#a"/><use xlink:href="#b" x="1.996" y="41.224"/><use xlink:href="#7"/><use xlink:href="#8" y="2.171"/><use xlink:href="#9" y="4.342"/><use xlink:href="#10" y="6.513"/><use xlink:href="#11" y="8.684"/><use xlink:href="#12" y="10.855"/><use xlink:href="#9" y="13.026"/><use xlink:href="#9" y="15.197"/><use xlink:href="#9" y="17.368"/><use xlink:href="#9" y="19.539"/><use xlink:href="#13" y="21.71"/><use xlink:href="#14" y="23.881"/><use xlink:href="#15" y="26.052"/><use xlink:href="#9" y="28.223"/><use xlink:href="#16" y="30.394"/><use xlink:href="#17" y="32.565"/><use xlink:href="#18" y="34.736"/><use xlink:href="#19" y="39.078"/><use xlink:href="#20" y="41.249"/></svg><svg x="6864"><use xlink:href="#a"/><use xlink:href="#b" x="-.004" y="43.395"/><use xlink:href="#7"/><use xlink:href="#8" y="2.171"/><use xlink:href="#9" y="4.342"/><use xlink:href="#10" y="6.513"/><use xlink:href="#11" y="8.684"/><use xlink:href="#12" y="10.855"/><use xlink:href="#9" y="13.026"/><use xlink:href="#9" y="15.197"/><use xlink:href="#9" y="17.368"/><use xlink:href="#9" y="19.539"/><use xlink:href="#13" y="21.71"/><use xlink:href="#14" y="23.881"/><use xlink:href="#15" y="26.052"/><use xlink:href="#9" y="28.223"/><use xlink:href="#16" y="30.394"/><use xlink:href="#17" y="32.565"/><use xlink:href="#18" y="34.736"/><use xlink:href="#19" y="39.078"/><use xlink:href="#20" y="41.249"/></svg></svg></g></g></svg></svg>