<?xml version="1.0" encoding="UTF-8"?>
<!DOCTYPE svg PUBLIC "-//W3C//DTD SVG 1.1//EN" "http://www.w3.org/Graphics/SVG/1.1/DTD/svg11.dtd">
<svg xmlns="http://www.w3.org/2000/svg" version="1.1" width="54px" height="44px" style="shape-rendering:geometricPrecision; text-rendering:geometricPrecision; image-rendering:optimizeQuality; fill-rule:evenodd; clip-rule:evenodd" xmlns:xlink="http://www.w3.org/1999/xlink">
<g><path style="opacity:0.906" fill="#613b28" d="M 17.5,-0.5 C 18.8333,-0.5 20.1667,-0.5 21.5,-0.5C 20.1667,2.16667 18.8333,2.16667 17.5,-0.5 Z"/></g>
<g><path style="opacity:0.424" fill="#6a4a3e" d="M 27.5,-0.5 C 28.5,-0.5 29.5,-0.5 30.5,-0.5C 29.5,0.833333 28.5,0.833333 27.5,-0.5 Z"/></g>
<g><path style="opacity:0.598" fill="#634235" d="M 22.5,1.5 C 23.404,2.20895 23.7373,3.20895 23.5,4.5C 19.9952,4.30591 19.6618,3.30591 22.5,1.5 Z"/></g>
<g><path style="opacity:0.985" fill="#5e3321" d="M 33.5,43.5 C 27.8333,43.5 22.1667,43.5 16.5,43.5C 4.20146,37.0967 0.368123,27.0967 5,13.5C 6.97931,8.43731 10.146,7.43731 14.5,10.5C 18.8923,8.98647 22.8923,6.81981 26.5,4C 31.3902,1.74621 36.0568,2.07954 40.5,5C 49.2438,12.1181 52.0772,21.2848 49,32.5C 44.8728,37.798 39.7061,41.4646 33.5,43.5 Z"/></g>
<g><path style="opacity:0.745" fill="#694233" d="M 14.5,4.5 C 19.8333,5.5 19.8333,6.5 14.5,7.5C 14.5,6.5 14.5,5.5 14.5,4.5 Z"/></g>
<g><path style="opacity:1" fill="#ebab63" d="M 46.5,21.5 C 44.2813,30.2105 38.6147,35.3772 29.5,37C 21.4934,38.7196 14.8267,36.5529 9.5,30.5C 6.84837,25.4374 6.84837,20.2708 9.5,15C 14.1903,14.4971 18.857,13.8304 23.5,13C 30.3396,5.8061 36.8396,5.97276 43,13.5C 44.9927,15.8175 46.1594,18.4842 46.5,21.5 Z"/></g>
<g><path style="opacity:1" fill="#6c3e25" d="M 31.5,12.5 C 33.0481,12.8212 33.7148,13.8212 33.5,15.5C 30.7524,15.5983 30.0857,14.5983 31.5,12.5 Z"/></g>
<g><path style="opacity:0.012" fill="#fefffe" d="M 1.5,17.5 C 2.83333,18.1667 2.83333,18.1667 1.5,17.5 Z"/></g>
<g><path style="opacity:1" fill="#744529" d="M 13.5,21.5 C 15.0481,21.8212 15.7148,22.8212 15.5,24.5C 12.7524,24.5983 12.0857,23.5983 13.5,21.5 Z"/></g>
<g><path style="opacity:1" fill="#693c24" d="M 27.5,22.5 C 28.5,22.5 29.5,22.5 30.5,22.5C 30.5,23.5 30.5,24.5 30.5,25.5C 29.5,25.5 28.5,25.5 27.5,25.5C 27.5,24.5 27.5,23.5 27.5,22.5 Z"/></g>
<g><path style="opacity:0.02" fill="#cbcccb" d="M 1.5,24.5 C 2.83333,25.1667 2.83333,25.1667 1.5,24.5 Z"/></g>
<g><path style="opacity:0.012" fill="#fefffe" d="M 1.5,31.5 C 2.83333,32.1667 2.83333,32.1667 1.5,31.5 Z"/></g>
<g><path style="opacity:1" fill="#cb7a4b" d="M 46.5,21.5 C 47.5077,27.0138 45.5077,31.5138 40.5,35C 31.307,40.5036 21.9737,40.837 12.5,36C 10.84,34.5123 9.83997,32.679 9.5,30.5C 14.8267,36.5529 21.4934,38.7196 29.5,37C 38.6147,35.3772 44.2813,30.2105 46.5,21.5 Z"/></g>
<g><path style="opacity:1" fill="#5f331f" d="M 19.5,30.5 C 20.8333,30.5 22.1667,30.5 23.5,30.5C 23.5,31.8333 23.5,33.1667 23.5,34.5C 20.5,34.8333 19.1667,33.5 19.5,30.5 Z"/></g>
<g><path style="opacity:0.004" fill="#e1e1e1" d="M 1.5,39.5 C 1.89657,38.475 2.56323,38.3083 3.5,39C 2.90558,39.4643 2.23891,39.631 1.5,39.5 Z"/></g>
</svg>
